<mxfile host="app.diagrams.net" agent="Mozilla/5.0 (Windows NT 10.0; Win64; x64; rv:131.0) Gecko/20100101 Firefox/131.0" version="24.8.3">
  <diagram name="Page-1" id="13e1069c-82ec-6db2-03f1-153e76fe0fe0">
    <mxGraphModel dx="1434" dy="2445" grid="1" gridSize="10" guides="1" tooltips="1" connect="1" arrows="1" fold="1" page="1" pageScale="1" pageWidth="1100" pageHeight="850" background="none" math="0" shadow="0">
      <root>
        <mxCell id="0" />
        <mxCell id="1" parent="0" />
        <mxCell id="0YN1JNcntVtqTYBsjdS_-84" value="" style="endArrow=none;dashed=1;html=1;rounded=0;" edge="1" parent="1">
          <mxGeometry width="50" height="50" relative="1" as="geometry">
            <mxPoint x="162.28" y="-349" as="sourcePoint" />
            <mxPoint x="162.27999999999997" y="-910" as="targetPoint" />
          </mxGeometry>
        </mxCell>
        <mxCell id="giZi3sO-TTmVDWN61RLp-180" value="" style="endArrow=none;dashed=1;html=1;rounded=0;" parent="1" source="giZi3sO-TTmVDWN61RLp-182" edge="1">
          <mxGeometry width="50" height="50" relative="1" as="geometry">
            <mxPoint x="161.03" y="-1235" as="sourcePoint" />
            <mxPoint x="161.03" y="-1605" as="targetPoint" />
          </mxGeometry>
        </mxCell>
        <mxCell id="giZi3sO-TTmVDWN61RLp-181" value="" style="endArrow=none;dashed=1;html=1;rounded=0;" parent="1" edge="1" target="giZi3sO-TTmVDWN61RLp-182">
          <mxGeometry width="50" height="50" relative="1" as="geometry">
            <mxPoint x="169.03" y="-1049" as="sourcePoint" />
            <mxPoint x="170.03" y="-1575" as="targetPoint" />
          </mxGeometry>
        </mxCell>
        <mxCell id="giZi3sO-TTmVDWN61RLp-182" value="Client" style="shape=umlActor;verticalLabelPosition=bottom;verticalAlign=top;html=1;outlineConnect=0;" parent="1" vertex="1">
          <mxGeometry x="154.03" y="-1670" width="30" height="60" as="geometry" />
        </mxCell>
        <mxCell id="giZi3sO-TTmVDWN61RLp-184" value=":bookingCatalog" style="shape=umlLifeline;perimeter=lifelinePerimeter;whiteSpace=wrap;html=1;container=1;collapsible=0;recursiveResize=0;outlineConnect=0;rounded=1;shadow=0;comic=0;labelBackgroundColor=none;strokeWidth=1;fontFamily=Verdana;fontSize=12;align=center;" parent="1" vertex="1">
          <mxGeometry x="716.91" y="-1665" width="140" height="616" as="geometry" />
        </mxCell>
        <mxCell id="giZi3sO-TTmVDWN61RLp-178" value=":OfferingCatalog" style="shape=umlLifeline;perimeter=lifelinePerimeter;whiteSpace=wrap;html=1;container=1;collapsible=0;recursiveResize=0;outlineConnect=0;rounded=1;shadow=0;comic=0;labelBackgroundColor=none;strokeWidth=1;fontFamily=Verdana;fontSize=12;align=center;" parent="1" vertex="1">
          <mxGeometry x="399.78" y="-1650" width="131" height="601" as="geometry" />
        </mxCell>
        <mxCell id="giZi3sO-TTmVDWN61RLp-190" value="" style="rounded=1;whiteSpace=wrap;html=1;" parent="1" vertex="1">
          <mxGeometry x="601.03" y="-1660" width="80" height="40" as="geometry" />
        </mxCell>
        <mxCell id="giZi3sO-TTmVDWN61RLp-191" value=":Offering" style="shape=umlLifeline;perimeter=lifelinePerimeter;whiteSpace=wrap;html=1;container=1;collapsible=0;recursiveResize=0;outlineConnect=0;rounded=1;shadow=0;comic=0;labelBackgroundColor=none;strokeWidth=1;fontFamily=Verdana;fontSize=12;align=center;" parent="1" vertex="1">
          <mxGeometry x="573.03" y="-1650" width="100" height="601" as="geometry" />
        </mxCell>
        <mxCell id="0YN1JNcntVtqTYBsjdS_-33" value="" style="endArrow=classic;html=1;rounded=0;dashed=1;" edge="1" parent="giZi3sO-TTmVDWN61RLp-191">
          <mxGeometry width="50" height="50" relative="1" as="geometry">
            <mxPoint x="216.5700000000001" y="417" as="sourcePoint" />
            <mxPoint x="-263.03" y="420" as="targetPoint" />
          </mxGeometry>
        </mxCell>
        <mxCell id="giZi3sO-TTmVDWN61RLp-256" value="" style="endArrow=none;dashed=1;html=1;rounded=0;" parent="1" edge="1" target="giZi3sO-TTmVDWN61RLp-257">
          <mxGeometry width="50" height="50" relative="1" as="geometry">
            <mxPoint x="190.5" y="173" as="sourcePoint" />
            <mxPoint x="190" y="-197" as="targetPoint" />
          </mxGeometry>
        </mxCell>
        <mxCell id="giZi3sO-TTmVDWN61RLp-257" value="Client" style="shape=umlActor;verticalLabelPosition=bottom;verticalAlign=top;html=1;outlineConnect=0;" parent="1" vertex="1">
          <mxGeometry x="172.28" y="-290" width="30" height="60" as="geometry" />
        </mxCell>
        <mxCell id="giZi3sO-TTmVDWN61RLp-258" value="b : booking" style="shape=umlLifeline;perimeter=lifelinePerimeter;whiteSpace=wrap;html=1;container=1;collapsible=0;recursiveResize=0;outlineConnect=0;rounded=1;shadow=0;comic=0;labelBackgroundColor=none;strokeWidth=1;fontFamily=Verdana;fontSize=12;align=center;" parent="1" vertex="1">
          <mxGeometry x="786.91" y="-268" width="100" height="288" as="geometry" />
        </mxCell>
        <mxCell id="giZi3sO-TTmVDWN61RLp-259" value=":bookingCatalogue" style="shape=umlLifeline;perimeter=lifelinePerimeter;whiteSpace=wrap;html=1;container=1;collapsible=0;recursiveResize=0;outlineConnect=0;rounded=1;shadow=0;comic=0;labelBackgroundColor=none;strokeWidth=1;fontFamily=Verdana;fontSize=12;align=center;" parent="1" vertex="1">
          <mxGeometry x="436.03" y="-271" width="131" height="451" as="geometry" />
        </mxCell>
        <mxCell id="0YN1JNcntVtqTYBsjdS_-129" value="" style="endArrow=classic;html=1;rounded=0;" edge="1" parent="giZi3sO-TTmVDWN61RLp-259">
          <mxGeometry width="50" height="50" relative="1" as="geometry">
            <mxPoint x="-85.5" y="141" as="sourcePoint" />
            <mxPoint x="65" y="141" as="targetPoint" />
          </mxGeometry>
        </mxCell>
        <mxCell id="0YN1JNcntVtqTYBsjdS_-131" value="getBookingCatalog()" style="text;html=1;align=center;verticalAlign=middle;resizable=0;points=[];autosize=1;strokeColor=none;fillColor=none;" vertex="1" parent="giZi3sO-TTmVDWN61RLp-259">
          <mxGeometry x="-82" y="115" width="140" height="30" as="geometry" />
        </mxCell>
        <mxCell id="giZi3sO-TTmVDWN61RLp-263" value="" style="rounded=1;whiteSpace=wrap;html=1;" parent="1" vertex="1">
          <mxGeometry x="652.53" y="-280" width="80" height="40" as="geometry" />
        </mxCell>
        <mxCell id="giZi3sO-TTmVDWN61RLp-264" value=":Booking" style="shape=umlLifeline;perimeter=lifelinePerimeter;whiteSpace=wrap;html=1;container=1;collapsible=0;recursiveResize=0;outlineConnect=0;rounded=1;shadow=0;comic=0;labelBackgroundColor=none;strokeWidth=1;fontFamily=Verdana;fontSize=12;align=center;" parent="1" vertex="1">
          <mxGeometry x="616.91" y="-270" width="100" height="450" as="geometry" />
        </mxCell>
        <mxCell id="giZi3sO-TTmVDWN61RLp-266" value="alt" style="shape=umlFrame;whiteSpace=wrap;html=1;pointerEvents=0;" parent="1" vertex="1">
          <mxGeometry x="80" y="-98" width="970" height="240" as="geometry" />
        </mxCell>
        <mxCell id="giZi3sO-TTmVDWN61RLp-267" value="[bookingID exists]" style="text;html=1;align=center;verticalAlign=middle;resizable=0;points=[];autosize=1;strokeColor=none;fillColor=none;" parent="1" vertex="1">
          <mxGeometry x="74.03" y="-46" width="120" height="30" as="geometry" />
        </mxCell>
        <mxCell id="giZi3sO-TTmVDWN61RLp-272" value="" style="line;strokeWidth=1;fillColor=none;align=left;verticalAlign=middle;spacingTop=-1;spacingLeft=3;spacingRight=3;rotatable=0;labelPosition=right;points=[];portConstraint=eastwest;strokeColor=inherit;dashed=1;" parent="1" vertex="1">
          <mxGeometry x="80" y="48" width="970" height="58" as="geometry" />
        </mxCell>
        <mxCell id="giZi3sO-TTmVDWN61RLp-273" value="[else]" style="text;html=1;align=center;verticalAlign=middle;resizable=0;points=[];autosize=1;strokeColor=none;fillColor=none;" parent="1" vertex="1">
          <mxGeometry x="84.03" y="75" width="50" height="30" as="geometry" />
        </mxCell>
        <mxCell id="0YN1JNcntVtqTYBsjdS_-1" value=":Console" style="shape=umlLifeline;perimeter=lifelinePerimeter;whiteSpace=wrap;html=1;container=1;collapsible=0;recursiveResize=0;outlineConnect=0;rounded=1;shadow=0;comic=0;labelBackgroundColor=none;strokeWidth=1;fontFamily=Verdana;fontSize=12;align=center;" vertex="1" parent="1">
          <mxGeometry x="243.03" y="-1650" width="131" height="601" as="geometry" />
        </mxCell>
        <mxCell id="0YN1JNcntVtqTYBsjdS_-2" value="" style="endArrow=classic;html=1;rounded=0;" edge="1" parent="0YN1JNcntVtqTYBsjdS_-1" target="0YN1JNcntVtqTYBsjdS_-1">
          <mxGeometry width="50" height="50" relative="1" as="geometry">
            <mxPoint x="-70.5" y="91" as="sourcePoint" />
            <mxPoint x="63.5" y="91" as="targetPoint" />
          </mxGeometry>
        </mxCell>
        <mxCell id="0YN1JNcntVtqTYBsjdS_-4" value="" style="endArrow=classic;html=1;rounded=0;" edge="1" parent="0YN1JNcntVtqTYBsjdS_-1">
          <mxGeometry width="50" height="50" relative="1" as="geometry">
            <mxPoint x="64.8366666666667" y="101" as="sourcePoint" />
            <mxPoint x="65.16999999999996" y="121" as="targetPoint" />
            <Array as="points">
              <mxPoint x="105.16999999999996" y="101" />
              <mxPoint x="105.16999999999996" y="121" />
            </Array>
          </mxGeometry>
        </mxCell>
        <mxCell id="0YN1JNcntVtqTYBsjdS_-3" value="bookOffering(offeringID)" style="text;html=1;align=center;verticalAlign=middle;resizable=0;points=[];autosize=1;strokeColor=none;fillColor=none;" vertex="1" parent="1">
          <mxGeometry x="162.28" y="-1583" width="150" height="30" as="geometry" />
        </mxCell>
        <mxCell id="0YN1JNcntVtqTYBsjdS_-5" value="checkAge" style="text;html=1;align=center;verticalAlign=middle;resizable=0;points=[];autosize=1;strokeColor=none;fillColor=none;" vertex="1" parent="1">
          <mxGeometry x="336.53" y="-1555" width="80" height="30" as="geometry" />
        </mxCell>
        <mxCell id="0YN1JNcntVtqTYBsjdS_-10" value="alt" style="shape=umlFrame;whiteSpace=wrap;html=1;pointerEvents=0;" vertex="1" parent="1">
          <mxGeometry x="34.03" y="-1509" width="1050" height="440" as="geometry" />
        </mxCell>
        <mxCell id="0YN1JNcntVtqTYBsjdS_-11" value="" style="endArrow=classic;html=1;rounded=0;dashed=1;" edge="1" parent="1">
          <mxGeometry width="50" height="50" relative="1" as="geometry">
            <mxPoint x="309.28" y="-1449" as="sourcePoint" />
            <mxPoint x="165.28" y="-1449" as="targetPoint" />
          </mxGeometry>
        </mxCell>
        <mxCell id="0YN1JNcntVtqTYBsjdS_-12" value="&lt;div&gt;Legal Guardian&lt;/div&gt;&lt;div&gt;&amp;nbsp;needed message&lt;/div&gt;" style="text;html=1;align=center;verticalAlign=middle;resizable=0;points=[];autosize=1;strokeColor=none;fillColor=none;" vertex="1" parent="1">
          <mxGeometry x="176.16" y="-1486" width="120" height="40" as="geometry" />
        </mxCell>
        <mxCell id="0YN1JNcntVtqTYBsjdS_-14" value="[age&amp;lt;18]" style="text;html=1;align=center;verticalAlign=middle;resizable=0;points=[];autosize=1;strokeColor=none;fillColor=none;" vertex="1" parent="1">
          <mxGeometry x="44.029999999999994" y="-1481" width="70" height="30" as="geometry" />
        </mxCell>
        <mxCell id="0YN1JNcntVtqTYBsjdS_-15" value="" style="endArrow=none;html=1;rounded=0;exitX=0.04;exitY=-0.133;exitDx=0;exitDy=0;exitPerimeter=0;entryX=1.004;entryY=0.198;entryDx=0;entryDy=0;entryPerimeter=0;dashed=1;" edge="1" parent="1" source="0YN1JNcntVtqTYBsjdS_-16" target="0YN1JNcntVtqTYBsjdS_-10">
          <mxGeometry width="50" height="50" relative="1" as="geometry">
            <mxPoint x="76.2532799999998" y="-1420" as="sourcePoint" />
            <mxPoint x="892.07328" y="-1419.2800000000002" as="targetPoint" />
          </mxGeometry>
        </mxCell>
        <mxCell id="0YN1JNcntVtqTYBsjdS_-16" value="[else]" style="text;html=1;align=center;verticalAlign=middle;resizable=0;points=[];autosize=1;strokeColor=none;fillColor=none;" vertex="1" parent="1">
          <mxGeometry x="34.029999999999994" y="-1419" width="50" height="30" as="geometry" />
        </mxCell>
        <mxCell id="0YN1JNcntVtqTYBsjdS_-17" value="" style="endArrow=classic;html=1;rounded=0;" edge="1" parent="1">
          <mxGeometry width="50" height="50" relative="1" as="geometry">
            <mxPoint x="310" y="-1380" as="sourcePoint" />
            <mxPoint x="463.03" y="-1379" as="targetPoint" />
          </mxGeometry>
        </mxCell>
        <mxCell id="0YN1JNcntVtqTYBsjdS_-18" value="getOfferingCatalog()" style="text;html=1;align=center;verticalAlign=middle;resizable=0;points=[];autosize=1;strokeColor=none;fillColor=none;" vertex="1" parent="1">
          <mxGeometry x="309.03" y="-1409" width="130" height="30" as="geometry" />
        </mxCell>
        <mxCell id="0YN1JNcntVtqTYBsjdS_-19" value="" style="endArrow=classic;html=1;rounded=0;" edge="1" parent="1">
          <mxGeometry width="50" height="50" relative="1" as="geometry">
            <mxPoint x="469.15999999999997" y="-1349" as="sourcePoint" />
            <mxPoint x="626.28" y="-1349" as="targetPoint" />
          </mxGeometry>
        </mxCell>
        <mxCell id="0YN1JNcntVtqTYBsjdS_-20" value="getOfferingByID(offeringID)" style="text;html=1;align=center;verticalAlign=middle;resizable=0;points=[];autosize=1;strokeColor=none;fillColor=none;" vertex="1" parent="1">
          <mxGeometry x="458.03" y="-1379" width="170" height="30" as="geometry" />
        </mxCell>
        <mxCell id="0YN1JNcntVtqTYBsjdS_-21" value="alt" style="shape=umlFrame;whiteSpace=wrap;html=1;pointerEvents=0;" vertex="1" parent="1">
          <mxGeometry x="64.03" y="-1309" width="980" height="220" as="geometry" />
        </mxCell>
        <mxCell id="0YN1JNcntVtqTYBsjdS_-22" value="" style="endArrow=classic;html=1;rounded=0;" edge="1" parent="1">
          <mxGeometry width="50" height="50" relative="1" as="geometry">
            <mxPoint x="310" y="-1280" as="sourcePoint" />
            <mxPoint x="790" y="-1280" as="targetPoint" />
          </mxGeometry>
        </mxCell>
        <mxCell id="0YN1JNcntVtqTYBsjdS_-23" value="getBookingCatalog()" style="text;html=1;align=center;verticalAlign=middle;resizable=0;points=[];autosize=1;strokeColor=none;fillColor=none;" vertex="1" parent="1">
          <mxGeometry x="312.28" y="-1308" width="140" height="30" as="geometry" />
        </mxCell>
        <mxCell id="0YN1JNcntVtqTYBsjdS_-24" value="b: booking" style="shape=umlLifeline;perimeter=lifelinePerimeter;whiteSpace=wrap;html=1;container=1;collapsible=0;recursiveResize=0;outlineConnect=0;rounded=1;shadow=0;comic=0;labelBackgroundColor=none;strokeWidth=1;fontFamily=Verdana;fontSize=12;align=center;" vertex="1" parent="1">
          <mxGeometry x="944.03" y="-1284" width="90" height="125" as="geometry" />
        </mxCell>
        <mxCell id="0YN1JNcntVtqTYBsjdS_-29" value="addBooking(client, offering)" style="text;html=1;align=center;verticalAlign=middle;resizable=0;points=[];autosize=1;strokeColor=none;fillColor=none;" vertex="1" parent="1">
          <mxGeometry x="780.03" y="-1277" width="170" height="30" as="geometry" />
        </mxCell>
        <mxCell id="0YN1JNcntVtqTYBsjdS_-30" value="" style="endArrow=classic;html=1;rounded=0;exitX=0.035;exitY=0.933;exitDx=0;exitDy=0;exitPerimeter=0;" edge="1" parent="1" source="0YN1JNcntVtqTYBsjdS_-29">
          <mxGeometry width="50" height="50" relative="1" as="geometry">
            <mxPoint x="794.03" y="-1249" as="sourcePoint" />
            <mxPoint x="944.03" y="-1249" as="targetPoint" />
          </mxGeometry>
        </mxCell>
        <mxCell id="0YN1JNcntVtqTYBsjdS_-31" value="" style="endArrow=classic;html=1;rounded=0;dashed=1;" edge="1" parent="1">
          <mxGeometry width="50" height="50" relative="1" as="geometry">
            <mxPoint x="622.78" y="-1331" as="sourcePoint" />
            <mxPoint x="307.78" y="-1331" as="targetPoint" />
          </mxGeometry>
        </mxCell>
        <mxCell id="0YN1JNcntVtqTYBsjdS_-32" value="return Offering" style="text;html=1;align=center;verticalAlign=middle;resizable=0;points=[];autosize=1;strokeColor=none;fillColor=none;" vertex="1" parent="1">
          <mxGeometry x="324.40999999999997" y="-1356" width="100" height="30" as="geometry" />
        </mxCell>
        <mxCell id="0YN1JNcntVtqTYBsjdS_-34" value="booking added" style="text;html=1;align=center;verticalAlign=middle;resizable=0;points=[];autosize=1;strokeColor=none;fillColor=none;" vertex="1" parent="1">
          <mxGeometry x="463.03" y="-1259" width="110" height="30" as="geometry" />
        </mxCell>
        <mxCell id="0YN1JNcntVtqTYBsjdS_-36" value="" style="endArrow=classic;html=1;rounded=0;dashed=1;" edge="1" parent="1">
          <mxGeometry width="50" height="50" relative="1" as="geometry">
            <mxPoint x="314.03" y="-1209" as="sourcePoint" />
            <mxPoint x="168.03" y="-1209" as="targetPoint" />
          </mxGeometry>
        </mxCell>
        <mxCell id="0YN1JNcntVtqTYBsjdS_-37" value="confirmation" style="text;html=1;align=center;verticalAlign=middle;resizable=0;points=[];autosize=1;strokeColor=none;fillColor=none;" vertex="1" parent="1">
          <mxGeometry x="184.03" y="-1233" width="90" height="30" as="geometry" />
        </mxCell>
        <mxCell id="0YN1JNcntVtqTYBsjdS_-38" value="" style="endArrow=none;html=1;rounded=0;entryX=1;entryY=0.695;entryDx=0;entryDy=0;entryPerimeter=0;dashed=1;exitX=0.003;exitY=0.682;exitDx=0;exitDy=0;exitPerimeter=0;" edge="1" parent="1" source="0YN1JNcntVtqTYBsjdS_-21" target="0YN1JNcntVtqTYBsjdS_-21">
          <mxGeometry width="50" height="50" relative="1" as="geometry">
            <mxPoint x="83.66" y="-1159" as="sourcePoint" />
            <mxPoint x="133.66" y="-1209" as="targetPoint" />
          </mxGeometry>
        </mxCell>
        <mxCell id="0YN1JNcntVtqTYBsjdS_-39" value="[offering!=null]" style="text;whiteSpace=wrap;html=1;" vertex="1" parent="1">
          <mxGeometry x="74.03" y="-1277" width="110" height="40" as="geometry" />
        </mxCell>
        <mxCell id="0YN1JNcntVtqTYBsjdS_-40" value="[else]" style="text;html=1;align=center;verticalAlign=middle;resizable=0;points=[];autosize=1;strokeColor=none;fillColor=none;" vertex="1" parent="1">
          <mxGeometry x="89.03" y="-1151" width="50" height="30" as="geometry" />
        </mxCell>
        <mxCell id="0YN1JNcntVtqTYBsjdS_-41" value="" style="endArrow=classic;html=1;rounded=0;dashed=1;" edge="1" parent="1">
          <mxGeometry width="50" height="50" relative="1" as="geometry">
            <mxPoint x="312.28" y="-1111" as="sourcePoint" />
            <mxPoint x="167.03" y="-1109" as="targetPoint" />
          </mxGeometry>
        </mxCell>
        <mxCell id="0YN1JNcntVtqTYBsjdS_-42" value="invalid OfferingID" style="text;html=1;align=center;verticalAlign=middle;resizable=0;points=[];autosize=1;strokeColor=none;fillColor=none;" vertex="1" parent="1">
          <mxGeometry x="171.03" y="-1134" width="120" height="30" as="geometry" />
        </mxCell>
        <mxCell id="0YN1JNcntVtqTYBsjdS_-83" value="" style="endArrow=none;dashed=1;html=1;rounded=0;" edge="1" source="0YN1JNcntVtqTYBsjdS_-85" parent="1">
          <mxGeometry width="50" height="50" relative="1" as="geometry">
            <mxPoint x="161.03" y="-535" as="sourcePoint" />
            <mxPoint x="161.03" y="-905" as="targetPoint" />
          </mxGeometry>
        </mxCell>
        <mxCell id="0YN1JNcntVtqTYBsjdS_-85" value="Client" style="shape=umlActor;verticalLabelPosition=bottom;verticalAlign=top;html=1;outlineConnect=0;" vertex="1" parent="1">
          <mxGeometry x="146.16" y="-970" width="30" height="60" as="geometry" />
        </mxCell>
        <mxCell id="0YN1JNcntVtqTYBsjdS_-86" value=":bookingCatalog" style="shape=umlLifeline;perimeter=lifelinePerimeter;whiteSpace=wrap;html=1;container=1;collapsible=0;recursiveResize=0;outlineConnect=0;rounded=1;shadow=0;comic=0;labelBackgroundColor=none;strokeWidth=1;fontFamily=Verdana;fontSize=12;align=center;" vertex="1" parent="1">
          <mxGeometry x="716.91" y="-965" width="140" height="616" as="geometry" />
        </mxCell>
        <mxCell id="0YN1JNcntVtqTYBsjdS_-87" value=":OfferingCatalog" style="shape=umlLifeline;perimeter=lifelinePerimeter;whiteSpace=wrap;html=1;container=1;collapsible=0;recursiveResize=0;outlineConnect=0;rounded=1;shadow=0;comic=0;labelBackgroundColor=none;strokeWidth=1;fontFamily=Verdana;fontSize=12;align=center;" vertex="1" parent="1">
          <mxGeometry x="399.78" y="-950" width="131" height="601" as="geometry" />
        </mxCell>
        <mxCell id="0YN1JNcntVtqTYBsjdS_-88" value="" style="rounded=1;whiteSpace=wrap;html=1;" vertex="1" parent="1">
          <mxGeometry x="601.03" y="-960" width="80" height="40" as="geometry" />
        </mxCell>
        <mxCell id="0YN1JNcntVtqTYBsjdS_-89" value=":Offering" style="shape=umlLifeline;perimeter=lifelinePerimeter;whiteSpace=wrap;html=1;container=1;collapsible=0;recursiveResize=0;outlineConnect=0;rounded=1;shadow=0;comic=0;labelBackgroundColor=none;strokeWidth=1;fontFamily=Verdana;fontSize=12;align=center;" vertex="1" parent="1">
          <mxGeometry x="573.03" y="-950" width="100" height="601" as="geometry" />
        </mxCell>
        <mxCell id="0YN1JNcntVtqTYBsjdS_-90" value="" style="endArrow=classic;html=1;rounded=0;dashed=1;" edge="1" parent="0YN1JNcntVtqTYBsjdS_-89">
          <mxGeometry width="50" height="50" relative="1" as="geometry">
            <mxPoint x="216.5700000000001" y="417" as="sourcePoint" />
            <mxPoint x="-263.03" y="420" as="targetPoint" />
          </mxGeometry>
        </mxCell>
        <mxCell id="0YN1JNcntVtqTYBsjdS_-91" value=":Console" style="shape=umlLifeline;perimeter=lifelinePerimeter;whiteSpace=wrap;html=1;container=1;collapsible=0;recursiveResize=0;outlineConnect=0;rounded=1;shadow=0;comic=0;labelBackgroundColor=none;strokeWidth=1;fontFamily=Verdana;fontSize=12;align=center;" vertex="1" parent="1">
          <mxGeometry x="243.03" y="-950" width="131" height="601" as="geometry" />
        </mxCell>
        <mxCell id="0YN1JNcntVtqTYBsjdS_-92" value="" style="endArrow=classic;html=1;rounded=0;" edge="1" parent="0YN1JNcntVtqTYBsjdS_-91" target="0YN1JNcntVtqTYBsjdS_-91">
          <mxGeometry width="50" height="50" relative="1" as="geometry">
            <mxPoint x="-83.03" y="91" as="sourcePoint" />
            <mxPoint x="63.5" y="91" as="targetPoint" />
          </mxGeometry>
        </mxCell>
        <mxCell id="0YN1JNcntVtqTYBsjdS_-93" value="" style="endArrow=classic;html=1;rounded=0;" edge="1" parent="0YN1JNcntVtqTYBsjdS_-91">
          <mxGeometry width="50" height="50" relative="1" as="geometry">
            <mxPoint x="64.8366666666667" y="101" as="sourcePoint" />
            <mxPoint x="65.16999999999996" y="121" as="targetPoint" />
            <Array as="points">
              <mxPoint x="105.16999999999996" y="101" />
              <mxPoint x="105.16999999999996" y="121" />
            </Array>
          </mxGeometry>
        </mxCell>
        <mxCell id="0YN1JNcntVtqTYBsjdS_-95" value="checkAge" style="text;html=1;align=center;verticalAlign=middle;resizable=0;points=[];autosize=1;strokeColor=none;fillColor=none;" vertex="1" parent="1">
          <mxGeometry x="336.53" y="-855" width="80" height="30" as="geometry" />
        </mxCell>
        <mxCell id="0YN1JNcntVtqTYBsjdS_-96" value="alt" style="shape=umlFrame;whiteSpace=wrap;html=1;pointerEvents=0;" vertex="1" parent="1">
          <mxGeometry x="34.03" y="-809" width="1050" height="440" as="geometry" />
        </mxCell>
        <mxCell id="0YN1JNcntVtqTYBsjdS_-97" value="" style="endArrow=classic;html=1;rounded=0;dashed=1;" edge="1" parent="1">
          <mxGeometry width="50" height="50" relative="1" as="geometry">
            <mxPoint x="309.28" y="-749" as="sourcePoint" />
            <mxPoint x="160" y="-749" as="targetPoint" />
          </mxGeometry>
        </mxCell>
        <mxCell id="0YN1JNcntVtqTYBsjdS_-98" value="&lt;div&gt;Legal Guardian&lt;/div&gt;&lt;div&gt;&amp;nbsp;needed message&lt;/div&gt;" style="text;html=1;align=center;verticalAlign=middle;resizable=0;points=[];autosize=1;strokeColor=none;fillColor=none;" vertex="1" parent="1">
          <mxGeometry x="176.16" y="-786" width="120" height="40" as="geometry" />
        </mxCell>
        <mxCell id="0YN1JNcntVtqTYBsjdS_-99" value="[age&amp;lt;18]" style="text;html=1;align=center;verticalAlign=middle;resizable=0;points=[];autosize=1;strokeColor=none;fillColor=none;" vertex="1" parent="1">
          <mxGeometry x="44.029999999999994" y="-781" width="70" height="30" as="geometry" />
        </mxCell>
        <mxCell id="0YN1JNcntVtqTYBsjdS_-100" value="" style="endArrow=none;html=1;rounded=0;exitX=0.04;exitY=-0.133;exitDx=0;exitDy=0;exitPerimeter=0;entryX=1.004;entryY=0.198;entryDx=0;entryDy=0;entryPerimeter=0;dashed=1;" edge="1" source="0YN1JNcntVtqTYBsjdS_-101" target="0YN1JNcntVtqTYBsjdS_-96" parent="1">
          <mxGeometry width="50" height="50" relative="1" as="geometry">
            <mxPoint x="76.2532799999998" y="-720" as="sourcePoint" />
            <mxPoint x="892.07328" y="-719.2800000000002" as="targetPoint" />
          </mxGeometry>
        </mxCell>
        <mxCell id="0YN1JNcntVtqTYBsjdS_-101" value="[else]" style="text;html=1;align=center;verticalAlign=middle;resizable=0;points=[];autosize=1;strokeColor=none;fillColor=none;" vertex="1" parent="1">
          <mxGeometry x="34.029999999999994" y="-719" width="50" height="30" as="geometry" />
        </mxCell>
        <mxCell id="0YN1JNcntVtqTYBsjdS_-102" value="" style="endArrow=classic;html=1;rounded=0;" edge="1" parent="1">
          <mxGeometry width="50" height="50" relative="1" as="geometry">
            <mxPoint x="310" y="-680" as="sourcePoint" />
            <mxPoint x="463.03" y="-679" as="targetPoint" />
          </mxGeometry>
        </mxCell>
        <mxCell id="0YN1JNcntVtqTYBsjdS_-103" value="getOfferingCatalog()" style="text;html=1;align=center;verticalAlign=middle;resizable=0;points=[];autosize=1;strokeColor=none;fillColor=none;" vertex="1" parent="1">
          <mxGeometry x="306.03" y="-709" width="130" height="30" as="geometry" />
        </mxCell>
        <mxCell id="0YN1JNcntVtqTYBsjdS_-104" value="" style="endArrow=classic;html=1;rounded=0;" edge="1" parent="1">
          <mxGeometry width="50" height="50" relative="1" as="geometry">
            <mxPoint x="469.15999999999997" y="-649" as="sourcePoint" />
            <mxPoint x="626.28" y="-649" as="targetPoint" />
          </mxGeometry>
        </mxCell>
        <mxCell id="0YN1JNcntVtqTYBsjdS_-105" value="getOfferingByID(offeringID)" style="text;html=1;align=center;verticalAlign=middle;resizable=0;points=[];autosize=1;strokeColor=none;fillColor=none;" vertex="1" parent="1">
          <mxGeometry x="458.03" y="-679" width="170" height="30" as="geometry" />
        </mxCell>
        <mxCell id="0YN1JNcntVtqTYBsjdS_-106" value="alt" style="shape=umlFrame;whiteSpace=wrap;html=1;pointerEvents=0;" vertex="1" parent="1">
          <mxGeometry x="64.03" y="-609" width="980" height="220" as="geometry" />
        </mxCell>
        <mxCell id="0YN1JNcntVtqTYBsjdS_-107" value="" style="endArrow=classic;html=1;rounded=0;" edge="1" parent="1" source="0YN1JNcntVtqTYBsjdS_-91">
          <mxGeometry width="50" height="50" relative="1" as="geometry">
            <mxPoint x="160" y="-584" as="sourcePoint" />
            <mxPoint x="784.6600000000001" y="-584" as="targetPoint" />
          </mxGeometry>
        </mxCell>
        <mxCell id="0YN1JNcntVtqTYBsjdS_-108" value="getBookingCatalog()" style="text;html=1;align=center;verticalAlign=middle;resizable=0;points=[];autosize=1;strokeColor=none;fillColor=none;" vertex="1" parent="1">
          <mxGeometry x="312.28" y="-608" width="140" height="30" as="geometry" />
        </mxCell>
        <mxCell id="0YN1JNcntVtqTYBsjdS_-109" value="b: booking" style="shape=umlLifeline;perimeter=lifelinePerimeter;whiteSpace=wrap;html=1;container=1;collapsible=0;recursiveResize=0;outlineConnect=0;rounded=1;shadow=0;comic=0;labelBackgroundColor=none;strokeWidth=1;fontFamily=Verdana;fontSize=12;align=center;" vertex="1" parent="1">
          <mxGeometry x="944.03" y="-584" width="90" height="125" as="geometry" />
        </mxCell>
        <mxCell id="0YN1JNcntVtqTYBsjdS_-110" value="addBooking(minor, offering)" style="text;html=1;align=center;verticalAlign=middle;resizable=0;points=[];autosize=1;strokeColor=none;fillColor=none;" vertex="1" parent="1">
          <mxGeometry x="775.03" y="-577" width="180" height="30" as="geometry" />
        </mxCell>
        <mxCell id="0YN1JNcntVtqTYBsjdS_-111" value="" style="endArrow=classic;html=1;rounded=0;exitX=0.035;exitY=0.933;exitDx=0;exitDy=0;exitPerimeter=0;" edge="1" source="0YN1JNcntVtqTYBsjdS_-110" parent="1">
          <mxGeometry width="50" height="50" relative="1" as="geometry">
            <mxPoint x="794.03" y="-549" as="sourcePoint" />
            <mxPoint x="944.03" y="-549" as="targetPoint" />
          </mxGeometry>
        </mxCell>
        <mxCell id="0YN1JNcntVtqTYBsjdS_-112" value="" style="endArrow=classic;html=1;rounded=0;dashed=1;" edge="1" parent="1">
          <mxGeometry width="50" height="50" relative="1" as="geometry">
            <mxPoint x="622.78" y="-632" as="sourcePoint" />
            <mxPoint x="307.78" y="-632" as="targetPoint" />
          </mxGeometry>
        </mxCell>
        <mxCell id="0YN1JNcntVtqTYBsjdS_-113" value="return Offering" style="text;html=1;align=center;verticalAlign=middle;resizable=0;points=[];autosize=1;strokeColor=none;fillColor=none;" vertex="1" parent="1">
          <mxGeometry x="324.40999999999997" y="-656" width="100" height="30" as="geometry" />
        </mxCell>
        <mxCell id="0YN1JNcntVtqTYBsjdS_-114" value="booking added" style="text;html=1;align=center;verticalAlign=middle;resizable=0;points=[];autosize=1;strokeColor=none;fillColor=none;" vertex="1" parent="1">
          <mxGeometry x="463.03" y="-559" width="110" height="30" as="geometry" />
        </mxCell>
        <mxCell id="0YN1JNcntVtqTYBsjdS_-115" value="" style="endArrow=classic;html=1;rounded=0;dashed=1;" edge="1" parent="1">
          <mxGeometry width="50" height="50" relative="1" as="geometry">
            <mxPoint x="314.03" y="-509" as="sourcePoint" />
            <mxPoint x="160" y="-510" as="targetPoint" />
          </mxGeometry>
        </mxCell>
        <mxCell id="0YN1JNcntVtqTYBsjdS_-116" value="confirmation" style="text;html=1;align=center;verticalAlign=middle;resizable=0;points=[];autosize=1;strokeColor=none;fillColor=none;" vertex="1" parent="1">
          <mxGeometry x="184.03" y="-533" width="90" height="30" as="geometry" />
        </mxCell>
        <mxCell id="0YN1JNcntVtqTYBsjdS_-117" value="" style="endArrow=none;html=1;rounded=0;entryX=1;entryY=0.695;entryDx=0;entryDy=0;entryPerimeter=0;dashed=1;exitX=0.003;exitY=0.682;exitDx=0;exitDy=0;exitPerimeter=0;" edge="1" source="0YN1JNcntVtqTYBsjdS_-106" target="0YN1JNcntVtqTYBsjdS_-106" parent="1">
          <mxGeometry width="50" height="50" relative="1" as="geometry">
            <mxPoint x="83.66" y="-459" as="sourcePoint" />
            <mxPoint x="133.66" y="-509" as="targetPoint" />
          </mxGeometry>
        </mxCell>
        <mxCell id="0YN1JNcntVtqTYBsjdS_-118" value="[offering!=null]" style="text;whiteSpace=wrap;html=1;" vertex="1" parent="1">
          <mxGeometry x="74.03" y="-577" width="110" height="40" as="geometry" />
        </mxCell>
        <mxCell id="0YN1JNcntVtqTYBsjdS_-119" value="[else]" style="text;html=1;align=center;verticalAlign=middle;resizable=0;points=[];autosize=1;strokeColor=none;fillColor=none;" vertex="1" parent="1">
          <mxGeometry x="89.03" y="-451" width="50" height="30" as="geometry" />
        </mxCell>
        <mxCell id="0YN1JNcntVtqTYBsjdS_-120" value="" style="endArrow=classic;html=1;rounded=0;dashed=1;" edge="1" parent="1">
          <mxGeometry width="50" height="50" relative="1" as="geometry">
            <mxPoint x="312.28" y="-411" as="sourcePoint" />
            <mxPoint x="162" y="-409" as="targetPoint" />
          </mxGeometry>
        </mxCell>
        <mxCell id="0YN1JNcntVtqTYBsjdS_-121" value="invalid OfferingID" style="text;html=1;align=center;verticalAlign=middle;resizable=0;points=[];autosize=1;strokeColor=none;fillColor=none;" vertex="1" parent="1">
          <mxGeometry x="171.03" y="-435" width="120" height="30" as="geometry" />
        </mxCell>
        <mxCell id="0YN1JNcntVtqTYBsjdS_-94" value="&lt;font style=&quot;font-size: 11px;&quot;&gt;bookOffering(minor,offeringID)&lt;/font&gt;" style="text;html=1;align=center;verticalAlign=middle;resizable=0;points=[];autosize=1;strokeColor=none;fillColor=none;" vertex="1" parent="1">
          <mxGeometry x="152.28" y="-885" width="170" height="30" as="geometry" />
        </mxCell>
        <mxCell id="0YN1JNcntVtqTYBsjdS_-122" value=":Console" style="shape=umlLifeline;perimeter=lifelinePerimeter;whiteSpace=wrap;html=1;container=1;collapsible=0;recursiveResize=0;outlineConnect=0;rounded=1;shadow=0;comic=0;labelBackgroundColor=none;strokeWidth=1;fontFamily=Verdana;fontSize=12;align=center;" vertex="1" parent="1">
          <mxGeometry x="285.53" y="-270" width="131" height="450" as="geometry" />
        </mxCell>
        <mxCell id="0YN1JNcntVtqTYBsjdS_-128" value="cancelBooking(bookingID)" style="text;html=1;align=center;verticalAlign=middle;resizable=0;points=[];autosize=1;strokeColor=none;fillColor=none;" vertex="1" parent="0YN1JNcntVtqTYBsjdS_-122">
          <mxGeometry x="-101.49999999999997" y="58" width="170" height="30" as="geometry" />
        </mxCell>
        <mxCell id="0YN1JNcntVtqTYBsjdS_-144" value="" style="endArrow=classic;html=1;rounded=0;dashed=1;" edge="1" parent="0YN1JNcntVtqTYBsjdS_-122" source="0YN1JNcntVtqTYBsjdS_-122">
          <mxGeometry width="50" height="50" relative="1" as="geometry">
            <mxPoint x="43.939999999999756" y="320" as="sourcePoint" />
            <mxPoint x="-95.53000000000024" y="320" as="targetPoint" />
          </mxGeometry>
        </mxCell>
        <mxCell id="0YN1JNcntVtqTYBsjdS_-127" value="" style="endArrow=classic;html=1;rounded=0;" edge="1" parent="1">
          <mxGeometry width="50" height="50" relative="1" as="geometry">
            <mxPoint x="190" y="-180" as="sourcePoint" />
            <mxPoint x="350" y="-180" as="targetPoint" />
          </mxGeometry>
        </mxCell>
        <mxCell id="0YN1JNcntVtqTYBsjdS_-132" value="" style="endArrow=classic;html=1;rounded=0;" edge="1" parent="1" target="giZi3sO-TTmVDWN61RLp-264">
          <mxGeometry width="50" height="50" relative="1" as="geometry">
            <mxPoint x="500" y="-70" as="sourcePoint" />
            <mxPoint x="550" y="-120" as="targetPoint" />
          </mxGeometry>
        </mxCell>
        <mxCell id="0YN1JNcntVtqTYBsjdS_-133" value="removeBooking(bookingID)" style="text;html=1;align=center;verticalAlign=middle;resizable=0;points=[];autosize=1;strokeColor=none;fillColor=none;" vertex="1" parent="1">
          <mxGeometry x="500" y="-96" width="170" height="30" as="geometry" />
        </mxCell>
        <mxCell id="0YN1JNcntVtqTYBsjdS_-135" value="" style="endArrow=classic;html=1;rounded=0;" edge="1" parent="1">
          <mxGeometry width="50" height="50" relative="1" as="geometry">
            <mxPoint x="667" y="-55" as="sourcePoint" />
            <mxPoint x="666" y="-35" as="targetPoint" />
            <Array as="points">
              <mxPoint x="710.3299999999999" y="-55" />
              <mxPoint x="710.3299999999999" y="-35" />
            </Array>
          </mxGeometry>
        </mxCell>
        <mxCell id="0YN1JNcntVtqTYBsjdS_-136" value="remove(b)" style="text;html=1;align=center;verticalAlign=middle;resizable=0;points=[];autosize=1;strokeColor=none;fillColor=none;" vertex="1" parent="1">
          <mxGeometry x="700.03" y="-60.5" width="80" height="30" as="geometry" />
        </mxCell>
        <mxCell id="0YN1JNcntVtqTYBsjdS_-137" value="" style="endArrow=classic;html=1;rounded=0;" edge="1" parent="1" source="0YN1JNcntVtqTYBsjdS_-122">
          <mxGeometry width="50" height="50" relative="1" as="geometry">
            <mxPoint x="359.27" y="22" as="sourcePoint" />
            <mxPoint x="828.74" y="22" as="targetPoint" />
          </mxGeometry>
        </mxCell>
        <mxCell id="0YN1JNcntVtqTYBsjdS_-138" value="delete(b)" style="text;html=1;align=center;verticalAlign=middle;resizable=0;points=[];autosize=1;strokeColor=none;fillColor=none;" vertex="1" parent="1">
          <mxGeometry x="519.03" y="-3" width="70" height="30" as="geometry" />
        </mxCell>
        <mxCell id="0YN1JNcntVtqTYBsjdS_-141" value="" style="verticalLabelPosition=bottom;verticalAlign=top;html=1;shape=mxgraph.basic.x" vertex="1" parent="1">
          <mxGeometry x="816.91" y="12" width="40" height="20" as="geometry" />
        </mxCell>
        <mxCell id="0YN1JNcntVtqTYBsjdS_-142" value="" style="endArrow=classic;html=1;rounded=0;dashed=1;" edge="1" parent="1" source="giZi3sO-TTmVDWN61RLp-264">
          <mxGeometry width="50" height="50" relative="1" as="geometry">
            <mxPoint x="660.0099999999998" y="-6" as="sourcePoint" />
            <mxPoint x="350.53" y="-6" as="targetPoint" />
          </mxGeometry>
        </mxCell>
        <mxCell id="0YN1JNcntVtqTYBsjdS_-143" value="booking removed" style="text;html=1;align=center;verticalAlign=middle;resizable=0;points=[];autosize=1;strokeColor=none;fillColor=none;" vertex="1" parent="1">
          <mxGeometry x="509" y="-31" width="120" height="30" as="geometry" />
        </mxCell>
        <mxCell id="0YN1JNcntVtqTYBsjdS_-145" value="Cancellation successful" style="text;html=1;align=center;verticalAlign=middle;resizable=0;points=[];autosize=1;strokeColor=none;fillColor=none;" vertex="1" parent="1">
          <mxGeometry x="188" y="25" width="160" height="30" as="geometry" />
        </mxCell>
        <mxCell id="0YN1JNcntVtqTYBsjdS_-146" value="" style="endArrow=classic;html=1;rounded=0;dashed=1;" edge="1" parent="1">
          <mxGeometry width="50" height="50" relative="1" as="geometry">
            <mxPoint x="348.53" y="120" as="sourcePoint" />
            <mxPoint x="188" y="120" as="targetPoint" />
          </mxGeometry>
        </mxCell>
        <mxCell id="0YN1JNcntVtqTYBsjdS_-147" value="invalid booking ID" style="text;html=1;align=center;verticalAlign=middle;resizable=0;points=[];autosize=1;strokeColor=none;fillColor=none;" vertex="1" parent="1">
          <mxGeometry x="205.41" y="95" width="120" height="30" as="geometry" />
        </mxCell>
      </root>
    </mxGraphModel>
  </diagram>
</mxfile>
